<?xml version="1.0" standalone="no"?>
<!DOCTYPE svg PUBLIC "-//W3C//DTD SVG 20010904//EN"
 "http://www.w3.org/TR/2001/REC-SVG-20010904/DTD/svg10.dtd">
<svg version="1.0" xmlns="http://www.w3.org/2000/svg"
 width="512.000000pt" height="512.000000pt" viewBox="0 0 512.000000 512.000000"
 preserveAspectRatio="xMidYMid meet">

<g transform="translate(0.000000,512.000000) scale(0.100000,-0.100000)"
fill="#ffffff" stroke="none">
<path d="M3180 5102 c-19 -9 -45 -32 -57 -51 -21 -32 -23 -45 -23 -185 l0
-152 -106 -43 -106 -43 -102 100 c-55 55 -111 105 -123 111 -28 14 -83 14
-120 0 -32 -12 -338 -311 -359 -351 -19 -37 -18 -118 2 -148 9 -14 59 -68 111
-120 l94 -96 -29 -64 c-16 -36 -35 -82 -41 -102 l-13 -38 -152 0 c-142 0 -155
-2 -187 -23 -66 -44 -70 -62 -67 -339 3 -233 4 -248 24 -275 44 -58 75 -68
237 -72 127 -3 149 -6 154 -20 3 -9 21 -52 39 -96 l34 -79 -100 -101 c-54 -56
-104 -114 -110 -129 -13 -36 -13 -102 1 -129 16 -31 319 -336 351 -353 37 -19
118 -18 148 2 14 9 68 59 121 111 l96 95 49 -25 c27 -13 67 -30 89 -37 66 -21
65 -18 65 -179 0 -164 9 -192 72 -231 31 -18 51 -20 273 -20 269 0 289 4 332
69 21 32 23 45 23 187 l0 152 38 13 c20 6 66 25 102 41 l64 29 96 -94 c52 -52
106 -102 120 -111 30 -20 111 -21 148 -2 41 22 339 327 352 359 13 37 13 93
-1 120 -6 12 -56 68 -111 123 l-100 102 40 98 40 99 149 5 c162 6 194 16 237
73 20 27 21 42 24 273 3 271 -1 293 -62 337 -28 20 -44 22 -187 25 l-155 3
-42 102 -42 101 100 101 c54 56 104 114 110 129 13 35 13 87 -1 123 -14 36
-313 338 -355 358 -42 20 -97 19 -137 -1 -18 -9 -75 -59 -127 -110 l-95 -93
-102 41 -102 42 -3 155 c-3 143 -5 159 -25 187 -43 59 -66 64 -325 64 -202 0
-238 -2 -268 -18z m460 -302 c0 -95 4 -169 11 -183 13 -29 33 -40 119 -67 36
-11 101 -38 145 -60 119 -60 118 -60 259 80 l121 120 137 -137 138 -137 -120
-122 c-140 -141 -140 -140 -80 -259 22 -44 49 -109 60 -145 27 -86 38 -106 67
-119 14 -7 88 -11 183 -11 l160 0 0 -195 0 -195 -173 0 c-205 0 -194 6 -239
-127 -16 -48 -45 -117 -64 -153 -54 -102 -53 -107 86 -245 l120 -120 -137
-137 -137 -138 -122 120 c-94 93 -127 120 -148 120 -14 0 -61 -17 -104 -39
-42 -21 -114 -51 -159 -66 -119 -39 -117 -35 -121 -236 l-3 -169 -189 0 -188
0 -4 169 c-4 201 -2 197 -121 236 -45 15 -117 45 -159 66 -43 22 -90 39 -104
39 -21 0 -54 -26 -148 -120 l-121 -120 -137 137 -138 137 120 122 c93 94 120
127 120 148 0 14 -18 62 -40 106 -22 44 -51 115 -65 157 -39 118 -29 113 -232
113 l-173 0 0 195 0 195 164 0 c200 0 201 1 242 123 15 45 44 117 65 159 22
43 39 90 39 104 0 21 -27 54 -120 148 l-120 122 138 137 137 137 120 -120 c96
-96 125 -120 148 -120 15 0 69 20 120 45 51 24 120 52 154 61 104 29 107 35
111 235 l4 169 189 0 189 0 0 -160z"/>
<path d="M3274 4291 c-265 -65 -477 -275 -544 -537 -27 -105 -27 -263 0 -369
85 -332 374 -555 720 -556 330 0 602 199 710 521 34 100 39 279 11 390 -69
276 -289 495 -558 554 -94 21 -248 19 -339 -3z m320 -157 c96 -25 193 -81 266
-154 308 -308 180 -834 -235 -966 -90 -29 -223 -34 -310 -14 -203 49 -376 218
-430 420 -24 89 -19 235 10 327 59 185 218 336 406 387 73 20 217 20 293 0z"/>
<path d="M4622 2165 c-95 -29 -359 -226 -577 -429 -194 -181 -231 -192 -480
-151 -352 58 -707 159 -1133 322 -338 129 -488 160 -717 150 -296 -14 -556
-118 -812 -324 -32 -25 -64 -50 -70 -56 -9 -6 -16 -1 -24 19 -16 45 -39 64
-74 64 -18 0 -183 -40 -366 -90 -346 -93 -369 -102 -369 -151 0 -11 88 -347
195 -747 172 -642 198 -730 220 -750 15 -12 33 -22 42 -22 25 0 654 168 690
185 41 18 50 51 34 128 -7 33 -11 60 -9 62 2 1 73 35 158 75 l155 72 105 -5
c138 -6 354 -52 637 -133 403 -117 457 -131 556 -148 128 -22 337 -22 442 -1
114 24 218 67 310 128 44 30 136 87 205 127 69 41 213 129 320 198 404 257
455 300 639 546 158 212 382 543 402 597 48 125 -2 236 -135 298 -107 51 -250
66 -344 36z m259 -172 c56 -25 79 -48 79 -79 0 -15 -49 -96 -123 -207 -227
-336 -391 -550 -475 -621 -87 -72 -520 -353 -757 -491 -55 -32 -133 -80 -173
-106 -113 -75 -206 -101 -381 -107 -196 -6 -306 13 -581 98 -205 64 -445 128
-605 162 -125 26 -173 31 -290 32 l-140 1 -154 -72 c-85 -40 -155 -72 -157
-70 -1 1 -61 220 -133 487 l-130 485 22 15 c12 8 80 59 151 112 246 184 475
268 733 268 181 0 312 -30 575 -131 442 -170 856 -288 1212 -345 105 -17 111
-19 153 -59 23 -23 43 -49 43 -58 0 -27 -48 -56 -149 -88 -88 -29 -103 -31
-186 -25 -49 4 -166 20 -260 36 -93 17 -249 44 -345 61 -270 48 -416 41 -532
-24 -68 -37 -70 -114 -4 -146 26 -12 34 -11 82 8 119 50 210 47 564 -19 348
-65 406 -73 525 -74 111 -1 127 2 215 32 109 38 180 80 217 129 35 46 43 128
18 184 -10 21 -16 40 -14 42 2 1 35 17 72 36 51 25 102 65 193 152 154 146
256 228 409 331 l120 80 81 -5 c49 -3 98 -12 125 -24z m-4035 -1045 c94 -348
169 -634 168 -636 -1 -1 -111 -32 -244 -68 -154 -41 -246 -61 -250 -54 -8 14
-342 1261 -338 1264 9 6 456 124 474 125 19 1 34 -50 190 -631z"/>
</g>
</svg>
